<?xml version="1.0" encoding="UTF-8" standalone="no"?>
<svg width="54px" height="64px" viewBox="0 0 54 64" version="1.1" xmlns="http://www.w3.org/2000/svg" xmlns:xlink="http://www.w3.org/1999/xlink" xmlns:sketch="http://www.bohemiancoding.com/sketch/ns">
    <!-- Generator: Sketch 3.0.3 (7891) - http://www.bohemiancoding.com/sketch -->
    <title>Trash</title>
    <desc>Created with Sketch.</desc>
    <defs></defs>
    <g id="Page-1" stroke="none" stroke-width="1" fill="none" fill-rule="evenodd" sketch:type="MSPage">
        <g id="Trash" sketch:type="MSLayerGroup" transform="translate(1.000000, 1.000000)" stroke="#6B6C6E" stroke-width="2">
            <path d="M48,13.8 L43.9,59.2 C43.9,60.7 42.7,62 41.1,62 L10.9,62 C9.4,62 8.1,60.8 8.1,59.2 L4,13.8" id="Shape" sketch:type="MSShapeGroup"></path>
            <path d="M8.8,13.9 L2.6,13.9 C1.2,13.9 0,12.7 0,11.3 L0,8.7 C0,7.2 1.2,6.1 2.6,6.1 L49.3,6.1 C50.7,6.1 51.9,7.3 51.9,8.7 L51.9,11.3 C51.9,12.8 50.7,13.9 49.3,13.9 L43.1,13.9" id="Shape" sketch:type="MSShapeGroup"></path>
            <path d="M25.9,19 L25.9,54" id="Shape" sketch:type="MSShapeGroup"></path>
            <path d="M14.9,19 L16.3,53.9" id="Shape" sketch:type="MSShapeGroup"></path>
            <path d="M36.9,19.1 L35.6,53.9" id="Shape" sketch:type="MSShapeGroup"></path>
            <rect id="Rectangle-path" sketch:type="MSShapeGroup" x="19" y="0" width="14" height="6"></rect>
        </g>
    </g>
</svg>